PathFileType	4	(X/Y/Z)	C:\Users\avatar\Documents\avatar\mocap1\10002-20130626160334-Unnamed.trc
DataRate	CameraRate	NumFrames	NumMarkers	Units	OrigDataRate	OrigDataStartFrame	OrigNumFrames
400.00	400.00	       71	0	mm	400.00	736	       882
Frame#	Time	
		

736	1.837	-10.91279	1113.96802	-452.21338	-407.20959	-5.83350	-65.15452	-817.23132	812.62476	-246.42369	-274.16937	1021.90881	-475.10577	-290.05331	157.64600	-711.03302	649.40753	1495.59729	-698.73834	
737	1.840	-11.08515	1113.38916	-454.32925	-406.19839	-4.43202	-65.82153	-817.21710	812.02307	-248.54237	-273.13483	1021.85156	-476.69281							-289.22614	156.76491	-710.50903	
738	1.842	-11.26920	1112.64111	-456.30347	-405.76651	-3.13627	-66.08749	-817.55933	811.17438	-250.46237	-273.88150	1021.31354	-477.79523							-288.87250	156.62076	-710.45490	
739	1.845	-11.21636	1112.18323	-458.25653	-405.02701	-1.75212	-66.53094	-817.77106	810.38055	-252.63362	-273.53058	1021.19470	-479.47275	
740	1.847				-404.64368	-0.63127	-67.05220	-818.19208	809.72015	-254.27794	-272.81076	1020.86786	-480.88983	-217.51500	713.00537	-523.70599	
741	1.850				-404.01627	0.80128	-67.39459	-818.55786	809.03625	-256.39743	-275.06470	1020.10883	-481.73447	
742	1.852				-403.58722	2.01893	-67.66014	-818.33502	808.38953	-258.20636	-276.45578	1019.32721	-482.50308	
743	1.855				-403.06195	2.94796	-68.40423	-818.58185	807.93610	-260.19449	-275.03549	1019.29871	-484.29510	
744	1.857	-812.57703	807.61194	-256.77081	-402.56735	3.89834	-68.86187	-825.13989	806.95508	-264.57700	-275.53339	1018.95123	-485.63043	-218.95264	710.77161	-531.84802	
745	1.860	-811.55353	808.49286	-259.66089	-401.74179	5.29987	-69.26999	-828.10492	804.79529	-267.50229	-275.27872	1018.62939	-486.91190	
746	1.862	-810.96301	808.20062	-261.39758	-402.32318	5.49839	-69.82801				-275.46301	1018.35266	-488.30606	
747	1.865	-811.60590	807.43170	-263.07761	-401.54294	6.16719	-70.54926				-274.83368	1018.13385	-489.92419	
748	1.867	-811.26666	806.90625	-264.42126							-275.22214	1017.85980	-490.85077	
749	1.870	-811.46497	806.47388	-267.18271	-221.53352	706.87518	-540.68121				-276.53159	1017.19153	-492.06384	
750	1.872	-810.50281	806.41217	-268.44757				-222.21481	706.44519	-542.36652	
751	1.875	-810.61737	805.77032	-270.46716	-535.19208	1121.48303	-524.72717	
752	1.878	-810.77814	805.25488	-272.52908	
753	1.880	-810.24902	804.81799	-273.88290	
754	1.883	-810.56683	804.12610	-275.61664	
755	1.885	-810.78540	803.89441	-277.69144	
756	1.888	-809.90100	803.28430	-279.00760	208.93214	941.12280	-340.22812	
757	1.890	-810.04395	802.90363	-281.14334	207.92949	941.12915	-340.98740	-581.92841	907.99072	-371.29477	
758	1.893	-810.04230	802.31787	-282.61292	207.97861	941.49084	-342.17270	-580.24768	910.21362	-373.58469	
759	1.895	-809.78815	801.98395	-284.60541	207.73686	941.54333	-342.96201	-584.92865	907.63721	-374.19803	-1403.71106	-866.94995	8.71250	
760	1.898	-810.33521	801.07440	-286.36389	207.91608	941.96704	-343.68085	-586.96191	907.11646	-374.17316				-417.35748	154.77541	-664.50732	
761	1.900	-810.27216	800.67194	-288.02145	207.55525	941.92114	-344.70108	-586.03894	907.28107	-375.90231	-1405.55017	-868.07220	7.00422	-417.59613	154.73375	-664.60016	
762	1.903	-809.75635	800.39667	-289.70407	207.90152	942.27112	-345.89178	-579.58704	907.27570	-379.07388	-1405.56433	-868.53339	5.76910	-417.66452	154.71638	-664.75311	
763	1.905	-809.90619	799.79517	-291.38126	207.38751	942.23572	-346.26398	-581.57233	907.08929	-379.83145	-1405.03577	-867.68054	4.40519	-417.67706	154.70673	-664.78650	
764	1.908	-809.52618	799.29382	-293.04276	207.54858	942.74194	-347.58517	-581.62500	906.94470	-381.35522	-1404.56287	-865.70245	1.41791	-417.65396	154.67810	-664.98358	
765	1.910	-809.34637	798.82196	-294.48758	207.91307	942.80341	-348.39484	-582.28705	906.96179	-382.16400	
766	1.913	-809.07477	798.59198	-296.25485	208.29742	943.12866	-349.23364	-581.13965	907.03394	-383.72858	
767	1.915	-809.21753	797.75342	-297.72421	208.37479	943.14996	-350.02728	-582.68146	906.80573	-384.10614	
768	1.918	-809.30817	797.00446	-299.53955	208.39410	943.10364	-350.71664	-579.64624	907.01172	-386.85794	
769	1.920	-808.60785	796.78717	-300.84808				-581.26617	906.85333	-387.38977	-873.81409	1023.09912	-440.16360	315.97632	1110.98511	-427.05316	-232.39391	698.19049	-559.72156	
770	1.923	-808.63397	796.72449	-302.53720				-582.74561	906.37048	-388.14230	-873.79694	1023.23883	-441.11096	316.80127	1111.71765	-428.22510	-233.41142	698.23694	-560.32922	
771	1.925	-808.76898	796.06940	-304.26135				-581.76709	906.80060	-389.70514	-874.27148	1023.00250	-442.38278	316.87421	1111.71838	-428.67694	-234.49571	698.38867	-560.50049	
772	1.928	-807.86212	795.73096	-305.67365				-582.53467	906.32904	-390.83557	-873.80096	1022.84296	-443.01654	317.29965	1111.77356	-429.20883	
773	1.930	-807.84052	795.64032	-307.30878	-417.74005	154.45705	-664.84619	-581.35583	906.77753	-392.47903	-873.40436	1022.87579	-443.90503	317.80725	1112.45715	-429.67352	
774	1.933	-807.38354	795.53094	-308.70148	-417.99454	154.40015	-664.92743	-580.15247	906.29395	-393.65137	-873.17694	1022.76349	-444.99295	318.61606	1113.23792	-431.01367	-236.09145	697.72339	-564.38800	
775	1.935	-807.04443	795.01587	-310.26126				-578.86011	906.61462	-395.65979				318.68851	1113.08850	-431.26602	-236.64923	697.58179	-565.14899	-9.34845	1013.20087	-755.76245	
776	1.938	-806.60046	794.91858	-311.76105				-580.47076	905.98138	-396.39624				319.23883	1113.74902	-431.75027				-10.31464	1013.07306	-756.19647	
777	1.940	-807.28479	794.26318	-313.79327				-578.09418	906.15613	-398.23425				319.61142	1113.97070	-432.17078				-10.68059	1013.16522	-756.48334	
778	1.942	-806.27991	794.10095	-314.81699				-579.61945	905.79541	-399.24405				320.66412	1114.97974	-433.09512				-10.20644	1013.94757	-757.77301	
779	1.945	-806.11151	793.97394	-316.25851				-577.52954	905.47491	-400.93341				321.07712	1114.87195	-433.48944				-10.58646	1014.05182	-758.46899	
780	1.947	-806.36566	793.90881	-318.16580	-175.81590	981.02307	-187.64525	-579.56854	905.39838	-401.74268				321.63342	1115.58997	-433.97928				-11.48425	1013.42883	-758.79059	
781	1.950	-805.51544	793.76294	-319.29086	-183.02289	976.08472	-183.25177	-582.45984	904.74896	-402.03839				322.36493	1116.46643	-434.68839				-11.49534	1014.01941	-759.28906	
782	1.952	-805.04309	793.65063	-321.06671				-583.06458	904.71161	-403.51285				323.01678	1116.82092	-434.95303				-11.35948	1014.58710	-760.05060	
783	1.955	-805.14343	793.33221	-322.47800				-582.37457	904.62225	-404.63428				323.49640	1117.25403	-435.58704				-11.38993	1014.71716	-760.79938	
784	1.957	-805.41492	793.11957	-324.06885				-583.46228	904.37909	-405.69080				323.85782	1117.39917	-435.81931				-11.29072	1014.85455	-761.65588	
785	1.960	-804.73492	793.29089	-325.60211	-241.87308	698.63574	-574.11780	-581.76868	904.71063	-407.12164				324.08075	1117.72412	-435.95853				-11.01588	1015.45416	-762.43738	
786	1.962	-804.76141	793.18835	-327.07251				-578.90906	904.58075	-408.83359	-241.85538	698.85144	-575.07269	324.71506	1118.54297	-436.58606				-10.90427	1015.15076	-763.18878	
787	1.965	-804.63861	792.92133	-328.25577				-575.64679	905.31848	-410.47144	-243.47679	698.53986	-574.65485							-10.93163	1015.28461	-763.83063	
788	1.967	-804.54590	792.97040	-330.23468	-204.46327	952.95465	-174.60266	-577.05530	904.60724	-411.35782										-10.72806	1015.42236	-764.66528	
789	1.970	-803.93060	792.76105	-331.38483				-575.03564	905.20947	-413.02267										-10.66756	1015.84552	-765.27374	
790	1.972	-803.97852	792.79559	-332.94528				-580.64655	904.44287	-412.43466										-10.35962	1016.40735	-765.94055	
791	1.975	-804.13910	792.45319	-334.44897				-581.09558	904.26398	-413.53235										-10.24513	1016.46173	-766.75555	
792	1.977	-803.93402	792.50043	-335.66592				-580.81549	904.60046	-414.59818										-10.21626	1016.31110	-767.61908	
793	1.980	-803.87189	792.73145	-336.98203				-579.92853	904.44714	-415.41858										-10.32653	1016.39783	-768.23877	
794	1.982	-803.90131	792.47705	-338.45331				-579.19385	904.68622	-416.71597										-10.03502	1016.51544	-769.29169	
795	1.985	-803.29248	792.82123	-339.59985																-9.56896	1017.15009	-770.17841	
796	1.987	-803.24384	792.78241	-340.89658																-9.66836	1017.19452	-770.74188	
797	1.990	-803.01208	793.03101	-342.40500																-9.20417	1017.68933	-771.57495	
798	1.992	-802.68579	793.21942	-343.32947																-9.31035	1017.91626	-772.47278	
799	1.995	-802.25824	793.53369	-344.53845																-9.33949	1017.83313	-773.08905	
800	1.997	-801.71100	793.41034	-345.87079																-9.30409	1017.85144	-773.55432	
801	2.000	-801.50568	793.70386	-347.05881																-9.20581	1017.92053	-774.49695	
802	2.003	-801.07336	793.91608	-347.96951																-9.03591	1017.98138	-775.10779	
803	2.005	-800.58356	794.18268	-349.05078																-8.59275	1018.46027	-775.57410	
804	2.007	-800.50519	794.13129	-350.20535																-8.09001	1018.84949	-776.77753	
805	2.010	-800.45154	794.22968	-351.35416																-8.31631	1019.05420	-777.74921	
806	2.013	-800.14441	794.33722	-352.56964																-8.96780	1018.40753	-777.98907	
